# xmcd
#
# Track frame offsets:
#	150
#	2637
#	17700
#	28492
#	40355
#	52737
#	64437
#	74257
#	83590
#	95697
#	107320
#	113852
#	124532
#	134970
#	148855
#	157275
#	170440
#	180697
#	189767
#
# Disc length: 2674 seconds
# Revision: 4
# Processed by: cddbd v1.5.2PL0 Copyright (c) Steve Scherf et al.
# Submitted via: dBpowerAMP V12.0
#
DISCID=0d0a7013
DTITLE=Patsy Cline - The Birth Of A Star
DYEAR=1996
DGENRE=Country
TTITLE0=Intro
TTITLE1=Walking After Midnight
TTITLE2=Try Again
TTITLE3=Two Cigarettes in an Ashtray
TTITLE4=Then You'll Know
TTITLE5=Too Many Secrets
TTITLE6=Come On In (And Make Yourself at Home)
TTITLE7=I Don't Wanna
TTITLE8=Your Cheatin' Heart
TTITLE9=Don't Ever Leave Me Again
TTITLE10=The Man Upstairs
TTITLE11=Stop The World (And Let Me Off)
TTITLE12=Down By the Riverside
TTITLE13=Write Me in Care of the Blues
TTITLE14=(Ain't) No Wheels On This Ship
TTITLE15=Hungry For Love
TTITLE16=Walking Dream
TTITLE17=Walking After Midnight
TTITLE18=Awards Dialogue
EXTD=
EXTT0=
EXTT1=
EXTT2=
EXTT3=
EXTT4=
EXTT5=
EXTT6=
EXTT7=
EXTT8=
EXTT9=
EXTT10=
EXTT11=
EXTT12=
EXTT13=
EXTT14=
EXTT15=
EXTT16=
EXTT17=
EXTT18=
PLAYORDER=
